<?xml version="1.0" standalone="no"?>
<!DOCTYPE svg PUBLIC "-//W3C//DTD SVG 20010904//EN"
 "http://www.w3.org/TR/2001/REC-SVG-20010904/DTD/svg10.dtd">
<svg version="1.0" xmlns="http://www.w3.org/2000/svg"
 width="512.000000pt" height="512.000000pt" viewBox="0 0 512.000000 512.000000"
 preserveAspectRatio="xMidYMid meet">
<metadata>
Created by potrace 1.14, written by Peter Selinger 2001-2017
</metadata>
<g transform="translate(0.000000,512.000000) scale(0.100000,-0.100000)"
fill="#000000" stroke="none">
<path d="M1790 5107 c-117 -34 -211 -111 -262 -214 -28 -57 -33 -79 -36 -160
-4 -76 0 -106 17 -161 54 -166 199 -272 374 -272 111 0 160 19 334 135 86 57
159 102 161 101 2 -3 -384 -784 -393 -794 -1 -1 -60 9 -131 24 -146 31 -328
38 -402 16 -59 -18 -109 -65 -123 -115 -12 -43 -215 -579 -230 -608 -4 -9 -38
-24 -74 -34 -231 -62 -457 -238 -586 -456 -44 -76 -354 -785 -385 -883 -128
-408 -15 -855 295 -1164 104 -104 216 -177 417 -270 319 -149 541 -213 833
-242 229 -22 349 -6 500 67 152 73 277 213 337 377 46 126 51 250 18 397 l-15
66 60 62 61 62 61 -62 60 -62 -15 -66 c-24 -105 -28 -166 -16 -253 22 -160 82
-279 201 -399 62 -63 93 -85 170 -122 59 -29 126 -52 179 -63 200 -40 622 20
905 129 156 60 415 185 502 243 261 174 450 474 498 791 26 173 13 344 -39
509 -31 98 -341 807 -385 883 -129 218 -355 394 -586 456 -36 10 -70 25 -74
34 -15 29 -218 565 -230 608 -14 50 -64 97 -123 115 -74 22 -256 15 -402 -16
-71 -15 -130 -25 -131 -24 -9 10 -395 791 -393 794 2 1 75 -44 161 -101 186
-123 229 -139 356 -133 152 8 261 80 328 216 37 75 38 78 38 191 0 105 -3 121
-27 174 -71 152 -239 250 -399 233 -88 -9 -141 -34 -304 -143 l-151 -100 -32
27 c-80 67 -224 67 -304 0 l-32 -27 -151 100 c-82 56 -172 109 -200 120 -64
24 -176 31 -235 14z m184 -171 c54 -23 336 -215 336 -230 0 -15 -285 -207
-342 -231 -57 -23 -126 -19 -186 11 -181 90 -173 369 13 450 40 17 137 17 179
0z m1349 1 c146 -62 193 -259 92 -391 -56 -74 -177 -106 -263 -71 -55 23 -342
217 -342 232 0 13 280 205 334 229 40 17 138 18 179 1z m-708 -172 c75 -74
-35 -185 -112 -113 -50 47 -12 138 57 138 19 0 40 -9 55 -25z m169 -693 l194
-389 -36 -12 c-79 -28 -260 -121 -319 -165 l-63 -46 -62 46 c-60 44 -241 137
-320 165 l-36 12 194 389 c191 381 195 388 224 388 29 0 33 -7 224 -388z
m-1293 -658 c195 -133 575 -258 825 -271 l102 -6 -83 -246 -82 -246 -64 3
c-65 3 -200 19 -231 28 -15 5 -15 9 3 62 40 113 7 248 -79 323 -18 17 -139 83
-268 147 -259 129 -241 111 -203 200 10 23 20 42 23 42 2 0 28 -16 57 -36z
m2227 -28 c12 -32 22 -60 20 -61 -2 -1 -108 -55 -236 -119 -128 -65 -247 -130
-265 -146 -85 -74 -118 -210 -78 -322 18 -53 18 -57 3 -62 -31 -9 -166 -25
-231 -28 l-64 -3 -82 246 -83 246 102 6 c125 6 275 37 430 88 131 43 338 140
401 187 22 17 44 29 50 28 5 -1 20 -29 33 -60z m-1917 -492 c19 -42 19 -46 3
-104 -11 -39 -22 -60 -32 -60 -24 0 -192 69 -272 112 -88 48 -240 149 -240
161 0 4 14 43 31 87 l30 80 231 -116 c227 -114 230 -116 249 -160z m2035 178
c16 -44 23 -76 18 -80 -99 -70 -173 -117 -234 -149 -80 -44 -248 -113 -272
-113 -10 0 -21 21 -32 60 -16 58 -16 62 3 104 19 44 22 46 248 159 155 78 230
111 235 103 4 -6 20 -44 34 -84z m-1196 -266 l74 -223 -48 -64 c-27 -35 -60
-88 -74 -116 -15 -29 -29 -53 -33 -53 -3 0 -15 19 -25 42 -10 24 -43 77 -73
118 l-54 75 74 223 c40 122 76 222 79 222 3 0 39 -101 80 -224z"/>
</g>
</svg>
